<svg xmlns="http://www.w3.org/2000/svg" viewBox="0 0 49.15 8.03">
  <path fill="#fb0" d="M62.29 142.75c-1.18 0-1.99-.88-1.99-2.07 0-1.2.81-2.08 1.99-2.08.95 0 1.59.56 1.79 1.46h1.83a3.46 3.46 0 0 0-3.61-3.13 3.68 3.68 0 0 0-3.81 3.75 3.68 3.68 0 0 0 3.81 3.74 3.46 3.46 0 0 0 3.6-3.13h-1.82c-.2.9-.84 1.46-1.8 1.46zm5.56-4.41c.55 0 1-.42 1-.97a.98.98 0 0 0-1-.97c-.57 0-1.01.41-1.01.97 0 .55.44.97 1 .97zm.86.8H67v5.13h1.71zm4.33-.16c-.55 0-1 .18-1.42.51v-.35h-1.71v5.13h1.71v-3.21c.3-.34.64-.52.96-.52.56 0 .93.35.93 1.08v2.65h1.72v-2.93c0-1.46-.89-2.36-2.19-2.36zm8.35 2.62c0-1.55-1.13-2.58-2.62-2.58-1.64 0-2.73 1.13-2.73 2.68 0 1.57 1.12 2.7 2.8 2.7 1.27 0 2.26-.68 2.5-1.73h-1.7c-.14.23-.42.37-.78.37-.65 0-1.01-.36-1.15-.83h3.66l-.01-.03c.03-.2.03-.4.03-.58zm-2.62-1.25c.55 0 .92.3 1.01.86h-2.1c.13-.52.5-.86 1.09-.86zm9.86-1.37a2.5 2.5 0 0 0-1.82.7 2.02 2.02 0 0 0-1.58-.7c-.57 0-.93.17-1.28.47v-.3h-1.71v5.12h1.71V141c.26-.32.51-.45.78-.45.56 0 .92.35.92 1.08v2.65h1.71v-2.93l-.02-.38c.25-.3.52-.42.78-.42.57 0 .92.35.92 1.08v2.65h1.73v-2.93c0-1.46-.91-2.36-2.14-2.36zm5.76.04c-1.62 0-2.79 1.14-2.79 2.68a2.67 2.67 0 0 0 2.79 2.73 2.67 2.67 0 0 0 2.78-2.73c0-1.54-1.16-2.68-2.78-2.68zm0 3.93c-.69 0-1.16-.55-1.16-1.24 0-.66.47-1.2 1.17-1.2.69 0 1.15.54 1.15 1.2 0 .7-.46 1.24-1.15 1.24zm7.11-3.9c-.76 0-1.31.25-1.77.64v-.55h-1.71v5.13h1.71v-2.93c.4-.4.93-.62 1.77-.65zm6.14.1h-1.72v.27c-.38-.25-.84-.4-1.4-.4a2.6 2.6 0 0 0-2.55 2.68 2.6 2.6 0 0 0 3.95 2.29v.28h1.72zm-2.78 3.82c-.7 0-1.21-.56-1.21-1.27 0-.7.5-1.28 1.2-1.28.39 0 .76.12 1.07.49v1.59c-.31.37-.68.47-1.06.47z" transform="translate(-58.49 -136.4)"/>
</svg>